<?xml version="1.0" encoding="UTF-8" standalone="no"?>
<svg
   xmlns:dc="http://purl.org/dc/elements/1.1/"
   xmlns:cc="http://creativecommons.org/ns#"
   xmlns:rdf="http://www.w3.org/1999/02/22-rdf-syntax-ns#"
   xmlns:svg="http://www.w3.org/2000/svg"
   xmlns="http://www.w3.org/2000/svg"
   xmlns:xlink="http://www.w3.org/1999/xlink"
   xmlns:sodipodi="http://sodipodi.sourceforge.net/DTD/sodipodi-0.dtd"
   xmlns:inkscape="http://www.inkscape.org/namespaces/inkscape"
   inkscape:export-ydpi="96"
   inkscape:export-xdpi="96"
   inkscape:export-filename="/home/melano/Pictures/Dragons/Glax/stickers/cookie.png"
   sodipodi:docname="cookie.svg"
   inkscape:version="0.92+devel (unknown)"
   id="svg4575"
   version="1.1"
   viewBox="0 0 512 512"
   height="512"
   width="512">
  <defs
     id="defs4569">
    <inkscape:path-effect
       miter_limit="100"
       jointype="extrapolated"
       smoothing="0.5"
       end_offset="0.2"
       attach_start="0.21607741"
       stroke_width="6"
       is_visible="true"
       id="path-effect1147"
       effect="taper_stroke" />
    <inkscape:path-effect
       miter_limit="100"
       jointype="extrapolated"
       smoothing="0.5"
       end_offset="0.17739007"
       attach_start="0.19459466"
       stroke_width="6"
       is_visible="true"
       id="path-effect1143"
       effect="taper_stroke" />
    <inkscape:path-effect
       miter_limit="100"
       jointype="extrapolated"
       smoothing="0.5"
       end_offset="0.29478544"
       attach_start="0.25705952"
       stroke_width="6"
       is_visible="true"
       id="path-effect1139"
       effect="taper_stroke" />
    <inkscape:path-effect
       miter_limit="100"
       jointype="extrapolated"
       smoothing="0.5"
       end_offset="0.57710352"
       attach_start="1e-07"
       stroke_width="6"
       is_visible="true"
       id="path-effect1135"
       effect="taper_stroke" />
    <inkscape:path-effect
       miter_limit="100"
       jointype="extrapolated"
       smoothing="0.5"
       end_offset="0.61193466"
       attach_start="0.60614535"
       stroke_width="6"
       is_visible="true"
       id="path-effect1133"
       effect="taper_stroke" />
    <inkscape:path-effect
       spray_tool_friendly="false"
       fixed_displacement="false"
       shift_nodes="true"
       handles="along"
       global_randomize="1;1"
       displace_y="3;1"
       displace_x="3;1"
       segments="14"
       max_segment_size="5"
       method="segments"
       is_visible="true"
       id="path-effect1101"
       effect="roughen" />
    <inkscape:path-effect
       spray_tool_friendly="false"
       fixed_displacement="false"
       shift_nodes="true"
       handles="along"
       global_randomize="1;1"
       displace_y="3;1"
       displace_x="3;1"
       segments="18"
       max_segment_size="7"
       method="segments"
       is_visible="true"
       id="path-effect1092"
       effect="roughen" />
  </defs>
  <sodipodi:namedview
     borderlayer="true"
     inkscape:document-rotation="0"
     inkscape:window-maximized="1"
     inkscape:window-y="0"
     inkscape:window-x="30"
     inkscape:window-height="1411"
     inkscape:window-width="2408"
     inkscape:pagecheckerboard="true"
     units="px"
     showgrid="false"
     inkscape:current-layer="layer7"
     inkscape:document-units="px"
     inkscape:cy="-725.23642"
     inkscape:cx="-1070.3626"
     inkscape:zoom="0.49497475"
     inkscape:pageshadow="2"
     inkscape:pageopacity="0.0"
     borderopacity="1.0"
     bordercolor="#666666"
     pagecolor="#ffffff"
     id="base" />
  <metadata
     id="metadata4572">
    <rdf:RDF>
      <cc:Work
         rdf:about="">
        <dc:format>image/svg+xml</dc:format>
        <dc:type
           rdf:resource="http://purl.org/dc/dcmitype/StillImage" />
        <dc:title></dc:title>
      </cc:Work>
    </rdf:RDF>
  </metadata>
  <g
     sodipodi:insensitive="true"
     style="display:none"
     transform="translate(0,-161.53332)"
     id="layer1"
     inkscape:groupmode="layer"
     inkscape:label="ref">
    <image
       sodipodi:absref="/home/melano/Pictures/Dragons/Glax/sketches/cookie nom.jpeg"
       xlink:href="../sketches/cookie%20nom.jpeg"
       y="-656.40826"
       x="43.366211"
       width="1017.5562"
       height="896.19629"
       preserveAspectRatio="none"
       id="image924"
       style="opacity:1;stroke-width:0.308504;stop-opacity:1"
       transform="rotate(90)" />
    <rect
       style="fill:#e1b57c;fill-opacity:1;stroke:none;stroke-width:6;stroke-linecap:round;stroke-linejoin:round;stroke-miterlimit:4;stroke-dasharray:none"
       id="rect973-6"
       width="165.60536"
       height="103.94873"
       x="-521.07874"
       y="383.61438" />
    <rect
       y="381.80399"
       x="-355.45529"
       height="103.94873"
       width="165.60536"
       id="rect975-7"
       style="fill:#b17a42;fill-opacity:1;stroke:none;stroke-width:6;stroke-linecap:round;stroke-linejoin:round;stroke-miterlimit:4;stroke-dasharray:none" />
    <rect
       y="485.867"
       x="-460.08548"
       height="103.94873"
       width="165.60536"
       id="rect973-3-5"
       style="fill:#643c2c;fill-opacity:1;stroke:none;stroke-width:6;stroke-linecap:round;stroke-linejoin:round;stroke-miterlimit:4;stroke-dasharray:none" />
  </g>
  <g
     inkscape:label="durg"
     id="layer2"
     inkscape:groupmode="layer">
    <g
       inkscape:label="wing b"
       id="layer4"
       inkscape:groupmode="layer">
      <path
         inkscape:connector-curvature="0"
         id="path1151"
         d="M 403.86387,508.93476 385.71899,400.38424 351.8168,309.33217 310.80178,342.71373 c 0,0 12.11448,148.30491 14.83774,152.14376 2.72326,3.83885 78.22435,14.07727 78.22435,14.07727 z"
         style="fill:#292f75;fill-opacity:1;stroke:none;stroke-width:6;stroke-linecap:round;stroke-linejoin:round;stroke-miterlimit:4;stroke-dasharray:none;stroke-opacity:1" />
      <path
         inkscape:connector-curvature="0"
         id="path1149"
         d="m 408.22671,521.4393 c 5.07324,-64.18374 -39.12358,-197.69385 -56.02382,-221.96753 -20.86312,-3.14018 -9.74291,9.9778 -9.74291,9.9778 21.0873,37.8154 51.91166,121.93397 58.74455,205.30206"
         style="fill:#3250b0;fill-opacity:1;stroke:#1d2848;stroke-width:6;stroke-linecap:round;stroke-linejoin:round;stroke-miterlimit:4;stroke-dasharray:none;stroke-opacity:1" />
    </g>
    <g
       inkscape:label="arm r"
       id="layer5"
       inkscape:groupmode="layer">
      <path
         inkscape:transform-center-y="-25.774993"
         inkscape:transform-center-x="-91.92396"
         sodipodi:nodetypes="cssscc"
         inkscape:connector-curvature="0"
         id="path1110"
         d="m 85.83593,413.16831 c 14.75043,7.61877 92.57757,88.26649 120.79023,87.98077 34.52487,-0.34964 83.43374,-74.51263 85.02625,-89.89591 1.5925,-15.3833 -3.45782,-36.17067 -19.42978,-32.41116 -15.97194,3.7595 -56.15821,51.42181 -64.90898,62.06181 -15.4997,0.10394 -75.18355,-68.42579 -97.44678,-70.07325"
         style="fill:#3250b0;fill-opacity:1;stroke:#1d2848;stroke-width:6;stroke-linecap:round;stroke-linejoin:round;stroke-miterlimit:4;stroke-dasharray:none;stroke-opacity:1" />
      <path
         inkscape:connector-curvature="0"
         id="path1112"
         d="m 90.691305,369.45826 c 2.243961,-5.91466 8.53484,-11.9184 12.512095,-11.9184 3.97727,0 17.45029,1.15434 19.27999,5.94773 1.8297,4.79338 -0.0924,10.47726 -6.4424,12.98142"
         style="fill:#3250b0;fill-opacity:1;stroke:#1d2848;stroke-width:6;stroke-linecap:round;stroke-linejoin:round;stroke-miterlimit:4;stroke-dasharray:none;stroke-opacity:1" />
    </g>
    <g
       inkscape:label="body"
       id="layer6"
       inkscape:groupmode="layer">
      <path
         inkscape:connector-curvature="0"
         id="path1131"
         d="m 260.54199,546.20623 -13.82594,-163.69276 17.31044,-93.50289 -90.3656,-75.75797 18.7432,-65.09757 79.73772,-6.00163 65.09853,73.71203 15.30387,128.078 9.60824,132.13654 13.68007,88.32031 z"
         style="fill:#3250b0;fill-opacity:1;stroke:none;stroke-width:6;stroke-linecap:round;stroke-linejoin:round;stroke-miterlimit:4;stroke-dasharray:none;stroke-opacity:1" />
      <path
         sodipodi:nodetypes="csssccsssc"
         inkscape:connector-curvature="0"
         id="path1044"
         d="m 242.21468,150.7703 c 20.9334,1.09338 60.69701,26.56792 82.65261,73.61698 19.43796,41.65397 11.68407,113.30196 14.7915,137.50234 3.40986,26.55565 19.82457,115.82711 16.61465,132.93411 -3.20993,17.107 -1.30664,65.09961 -1.30664,65.09961 l 48.96484,-18.66601 c -0.74064,-12.4031 -2.07205,-24.76924 -3.98437,-36.52344 -8.00681,-49.21435 -31.80573,-101.45186 -36.63868,-129.5293 -5.30868,-30.84128 8.08645,-101.07891 -12.95898,-155.51953 -16.91618,-43.75902 -50.71646,-90.23379 -103.38281,-96.79883"
         style="display:inline;opacity:1;fill:#292f75;fill-opacity:1;stroke:none;stroke-width:6;stroke-linecap:round;stroke-linejoin:round;stroke-miterlimit:4;stroke-dasharray:none" />
      <path
         inkscape:connector-curvature="0"
         id="path1055"
         d="m 246.96621,122.88709 c 52.66635,6.56504 86.46646,53.0389 103.38264,96.79792 21.04543,54.44062 7.65116,124.67924 12.95984,155.52052 4.83295,28.07744 28.63253,80.31465 36.63934,129.529 7.88143,48.44372 5.99173,107.27076 -7.15209,136.32004"
         style="display:inline;opacity:1;fill:none;stroke:#1d2848;stroke-width:6;stroke-linecap:round;stroke-linejoin:round;stroke-miterlimit:4;stroke-dasharray:none" />
      <path
         sodipodi:nodetypes="cssccssc"
         inkscape:connector-curvature="0"
         d="m 227.42724,292.58798 c 7.20919,-1.57917 16.58481,3.36886 17.52793,14.71338 2.23257,26.85507 -31.82292,68.02405 -34.45801,113.20616 -4.49422,77.0593 17.42902,102.61354 11.71474,148.4757 l 74.0772,-5.59576 c 6.10351,-35.91032 -18.38567,-106.08838 -15.7859,-145.29521 2.28927,-34.52427 21.81695,-67.26267 21.01359,-105.40805 -0.69114,-32.81679 -16.64859,-48.08591 -24.86098,-52.2875"
         style="fill:#c4d9f5;fill-opacity:1;stroke:#1d2848;stroke-width:6;stroke-linecap:round;stroke-linejoin:round;stroke-miterlimit:4;stroke-dasharray:none;stroke-opacity:1"
         id="path1107" />
    </g>
    <g
       inkscape:label="head l"
       id="layer7"
       inkscape:groupmode="layer">
      <path
         inkscape:connector-curvature="0"
         id="path1129"
         d="m 245.47869,249.89681 19.7719,16.06912 -24.20488,51.9017 c 0,0 -44.2518,54.94339 -47.03012,55.56573 -2.77832,0.62234 -64.94053,0.17147 -64.94053,0.17147 l -1.6211,-43.11931 z"
         style="fill:#e84d66;fill-opacity:1;stroke:#b53147;stroke-width:6;stroke-linecap:round;stroke-linejoin:round;stroke-miterlimit:4;stroke-dasharray:none;stroke-opacity:1" />
      <path
         sodipodi:nodetypes="csccc"
         inkscape:connector-curvature="0"
         id="path1127"
         d="m 215.90254,286.51922 c 7.39607,0 22.4145,5.10462 22.57289,16.38514 0.15839,11.28052 27.3495,-27.59805 27.3495,-27.59805 L 245.9215,245.35076 Z"
         style="fill:#f797ab;fill-opacity:1;stroke:#de6881;stroke-width:6;stroke-linecap:round;stroke-linejoin:round;stroke-miterlimit:4;stroke-dasharray:none;stroke-opacity:1" />
      <path
         inkscape:connector-curvature="0"
         id="path1118"
         d="m 292.01033,239.53988 c -4.407,-10.56047 -27.77309,-7.47009 -32.86129,-2.38991 -5.08819,5.08017 -1.55748,15.69436 -11.47997,25.20861 -1.2888,13.71521 -2.40657,32.71493 -20.97547,51.54283 -11.18975,22.15036 -24.14115,40.38352 -30.96096,43.69708 -6.8198,3.31355 -36.38109,7.63236 -49.47466,5.13685 -13.09356,-2.49551 -7.52681,22.75879 10.23778,23.82572 17.76458,1.06694 37.94712,1.9009 48.28212,-8.04848 10.335,-9.94939 32.01259,-42.53179 38.52822,-52.9763 8.30039,-9.97114 34.18575,-28.71529 39.09899,-42.50052 4.91325,-13.78523 16.31257,-35.41964 9.60524,-43.49588 z"
         style="display:inline;opacity:1;fill:#c4d9f5;fill-opacity:1;stroke:none;stroke-width:6;stroke-linecap:round;stroke-linejoin:round;stroke-miterlimit:4;stroke-dasharray:none;stroke-opacity:1" />
      <path
         transform="translate(0,-3.3715805)"
         inkscape:original-d="m 247.70365,267.21369 c 3.70726,14.45283 -15.269,41.13842 -22.24916,51.2678 -5.849,8.48789 -18.6504,40.94102 -35.3888,45.4354 -13.5438,3.6366 -38.41476,1.04653 -47.11925,-2.64875 -8.70449,-3.69528 -10.52451,14.56989 2.25725,20.27429 12.78175,5.7044 40.51819,11.35806 57.74501,0.82189 19.26555,-11.78308 33.55794,-46.03326 42.44199,-56.06262 9.59422,-10.83109 26.58218,-26.349 33.46255,-35.20376 7.7259,-9.94293 17.46509,-33.38052 13.68568,-47.98373"
         inkscape:path-effect="#path-effect1135"
         sodipodi:nodetypes="csssssssc"
         inkscape:connector-curvature="0"
         id="path1103"
         d="m 244.79773,267.95908 c 3.29075,12.8291 -14.81106,38.6584 -21.81352,48.82014 -6.27734,9.10948 -18.50139,40.16031 -33.69648,44.2403 -12.92735,3.47108 -37.17845,0.87934 -45.16898,-2.51284 -2.5938,-1.10114 -4.96124,-1.04531 -7.1548,0.39635 -7.15155,4.70015 -4.61573,20.18731 7.0171,25.37895 13.38273,5.97262 42.08342,11.9256 60.53294,0.64161 19.88208,-12.16016 34.68415,-47.10663 43.12236,-56.63267 9.48301,-10.70554 26.49243,-26.22337 33.58581,-35.35227 3.47405,-4.47097 7.25756,-11.40897 10.13983,-18.93352 2.12488,-5.53098 3.23832,-11.09949 3.49895,-16.26518 0.244,-4.47562 -0.21672,-8.0018 -0.9163,-10.68969 -0.66745,-2.56441 -1.40572,-3.93605 -1.40572,-3.93605 0,0 0.16062,1.55506 4.4e-4,4.0761 -0.17678,2.78257 -0.69471,5.74245 -1.78633,9.92134 -1.29449,4.86074 -2.93925,9.3661 -4.99405,14.74725 -2.74308,7.16117 -6.2142,13.45964 -9.27466,17.39833 -6.66736,8.58062 -23.63386,24.09861 -33.33929,35.05525 -9.32989,10.53268 -23.1126,44.08657 -41.76162,55.49257 -16.00412,9.78835 -42.77631,4.43401 -54.95708,-1.00217 -8.81088,-3.93223 -8.02939,-13.66182 -6.16704,-14.8858 0.0632,-0.0416 0.62684,-0.26445 1.51484,0.11252 9.41845,3.99838 34.90927,6.58678 49.06953,2.78466 18.2756,-4.90713 31.65876,-38.76175 37.08111,-46.6305 6.95785,-10.09701 26.80856,-37.63889 22.6848,-53.71546 z"
         style="fill:#1d2848;fill-opacity:1;fill-rule:nonzero;stroke:none;stroke-width:6;stroke-linecap:round;stroke-linejoin:round;stroke-miterlimit:4;stroke-dasharray:none;stroke-opacity:1" />
    </g>
    <g
       style="display:inline"
       inkscape:label="cookie"
       id="layer10"
       inkscape:groupmode="layer">
      <path
         transform="translate(14.719958,-15.423093)"
         inkscape:original-d="m 108.83789,356.10014 c -30.990385,21.75993 -28.416737,64.88148 -20.811271,84.05398 10.960439,27.62999 42.120751,38.19888 71.910171,25.04122 29.15367,-12.87685 42.17889,-60.72636 25.33631,-93.69103 -11.71782,-22.93438 -54.17493,-31.03425 -76.43521,-15.40417 z"
         inkscape:path-effect="#path-effect1092"
         sodipodi:nodetypes="sssss"
         inkscape:connector-curvature="0"
         id="path1090"
         d="m 106.30106,355.08331 c -1.72169,1.20888 0.4737,5.34289 -1.04569,6.67587 -0.12539,3.07239 -5.11778,2.9675 -6.362704,4.28021 -3.270431,1.38753 -3.002281,3.85343 -3.796262,4.81249 -1.999362,2.8419 -0.966725,2.20908 -1.607922,3.08383 -0.663047,1.95944 -2.46439,3.42436 -3.366279,4.93834 -1.252097,1.89078 -3.020098,3.65825 -3.721849,5.1167 -2.020731,2.08571 0.190647,4.85529 -0.313492,6.17163 0.921043,3.44416 -2.962201,3.23852 -3.336992,4.43509 -2.502042,2.1689 -0.846296,2.62127 -1.140962,3.93754 -0.492091,1.83091 -1.254473,4.03469 -1.443488,5.86127 -0.719425,2.0709 0.07052,3.39918 0.09135,5.10953 0.349653,1.73949 -0.02756,3.69989 0.180296,5.48631 0.02571,1.74527 -0.07913,4.98728 0.268586,6.64339 -0.312364,2.76848 -0.555745,4.55132 -0.220255,5.64394 -0.749414,3.37839 -0.312012,2.24051 0.186295,3.1672 -0.268752,1.62994 1.561433,2.39469 2.790106,3.6877 0.362883,0.43068 1.951313,1.89573 2.840393,3.01902 0.74305,0.93879 1.398357,2.03709 1.800692,3.05133 0.608914,1.535 2.970733,3.10764 3.700193,4.53589 2.273504,1.23136 1.06439,1.36665 1.712689,2.43777 0.790922,0.64856 2.121356,2.88764 3.174251,4.27988 1.090776,1.06879 1.652836,2.13962 2.622051,3.21256 0.868133,0.98545 1.619573,2.42596 2.739573,3.45321 0.64697,1.24099 2.31483,2.03888 3.54059,2.95713 1.16778,0.89403 2.38867,1.4833 3.63496,2.2449 1.28616,0.56753 1.95494,0.0557 3.30543,0.71576 0.99915,-0.64602 3.98357,2.43399 5.73358,3.08861 1.75441,1.31565 2.4272,2.37775 3.56483,2.71514 1.48453,1.96912 3.56428,1.81578 4.88321,2.06248 2.19416,1.34935 2.47452,0.41885 3.69872,0.50987 1.67927,0.15573 3.00855,-1.29041 4.66728,-1.39583 1.36775,-1.52038 1.8129,0.22548 3.51307,0.0184 0.47752,0.23667 3.42677,-1.26579 5.69431,-1.75538 0.98379,-1.02751 3.08672,-1.15498 5.01546,-1.56286 1.1979,-0.7832 4.57024,-0.76869 6.43765,-1.14843 1.82431,-0.37097 3.11981,-1.40314 4.60667,-2.05987 1.61965,-0.71538 1.46409,-0.68008 2.97943,-1.59882 0.30845,-0.37584 4.01407,-2.79192 5.86945,-4.36497 1.34884,-1.26122 2.97916,-2.68111 4.19878,-3.94809 1.5182,-1.53775 3.88984,-2.4445 4.9249,-3.72495 2.63606,-1.22556 0.93597,-1.2872 1.79739,-2.54705 0.41624,-0.84616 3.09172,-3.64777 4.22794,-5.79836 1.44234,-1.38179 3.81082,-1.22637 4.59044,-3.0858 3.01282,-5.6e-4 3.79663,-6.85211 4.49488,-9.37845 2.31861,-3.2883 1.61235,0.29902 1.86815,-0.92288 1.61151,-0.26964 1.47898,-6.95928 1.6333,-10.14981 0.56922,-2.71963 0.14307,-3.59887 0.0782,-5.47622 -0.0308,-2.05311 -0.36067,-4.96552 -0.62535,-7.15769 -0.33909,-2.49589 -0.5217,-3.8049 -0.87316,-5.6741 -0.38645,-2.08179 -0.86009,-3.73263 -1.37982,-5.74697 -0.5604,-1.74681 -0.87443,-3.97389 -1.54501,-6.06292 -0.37485,-1.80066 0.0988,-4.42222 -0.70611,-6.45409 0.70165,-2.33716 -3.03718,-3.76805 -4.31119,-5.62313 -1.20093,-1.74867 -1.65188,-1.49062 -2.50705,-3.16437 -0.65099,-1.27413 -1.34677,-2.5823 -2.17754,-3.77576 -0.77737,-1.26099 -0.0106,-0.97709 -0.99873,-2.08001 0.26987,-0.27037 -2.1756,-4.19277 -3.96505,-5.64444 -0.31379,-2.02305 -4.15298,-1.47683 -5.52989,-2.37838 -2.62164,-0.18659 -1.93696,-1.24077 -3.00973,-1.85133 -1.30723,-0.75256 -3.8159,-1.7876 -5.33582,-2.50217 -2.1145,-0.77597 -2.5705,-1.26709 -3.81842,-1.7677 -1.61862,-0.76028 -4.12763,-2.99276 -5.65658,-3.48713 -2.24185,-2.20948 -0.4388,0.15476 -1.55853,-0.1331 -0.49289,0.25108 -3.95769,-0.45784 -6.31452,-0.78268 -1.24361,0.32397 -6.20801,-2.34951 -8.15186,-2.45908 -3.26842,-1.9493 0.42928,1.55894 -0.44758,1.56332 -0.15857,1.6441 -2.28929,0.97568 -4.6789,1.22635 0.23405,1.07542 -4.06008,2.30176 -6.53102,2.67916 -1.07109,2.04133 -2.04956,-0.77991 -3.80755,-0.59973 -0.43349,-1.02957 -4.01661,0.37943 -6.02644,0.88969 -1.5843,0.1954 -1.62235,0.67295 -2.93401,1.22798 -1.54696,0.6546 -6.75582,0.57631 -7.8193,1.32303 z"
         style="fill:#e1af7c;fill-opacity:1;stroke:#b17d42;stroke-width:6;stroke-linecap:round;stroke-linejoin:round;stroke-miterlimit:4;stroke-dasharray:none;stroke-opacity:1" />
      <ellipse
         transform="matrix(0.97025481,0.24208594,-0.230715,0.97302137,0,0)"
         ry="8.4906359"
         rx="10.943881"
         cy="312.44312"
         cx="249.9646"
         id="path1076"
         style="fill:#643c2c;fill-opacity:1;stroke:none;stroke-width:6.00021;stroke-linecap:round;stroke-linejoin:round;stroke-miterlimit:4;stroke-dasharray:none" />
      <ellipse
         transform="matrix(0.9276107,-0.37354839,0.30373469,0.95275665,0,0)"
         ry="6.9740386"
         rx="8.7130499"
         cy="382.96429"
         cx="13.679428"
         id="path1078"
         style="fill:#643c2c;fill-opacity:1;stroke:none;stroke-width:6.00828;stroke-linecap:round;stroke-linejoin:round;stroke-miterlimit:4;stroke-dasharray:none" />
      <ellipse
         transform="rotate(-9.5590631)"
         ry="10.50306"
         rx="7.7580261"
         cy="425.83276"
         cx="108.36245"
         id="path1080"
         style="fill:#643c2c;fill-opacity:1;stroke:none;stroke-width:6;stroke-linecap:round;stroke-linejoin:round;stroke-miterlimit:4;stroke-dasharray:none" />
      <ellipse
         transform="rotate(15.301281)"
         ry="10.043062"
         rx="8.7339783"
         cy="352.44818"
         cx="245.91512"
         id="path1082"
         style="fill:#643c2c;fill-opacity:1;stroke:none;stroke-width:6;stroke-linecap:round;stroke-linejoin:round;stroke-miterlimit:4;stroke-dasharray:none" />
      <ellipse
         transform="rotate(26.215308)"
         ry="7.7770996"
         rx="10.504325"
         cy="322.72415"
         cx="329.93613"
         id="path1086"
         style="fill:#643c2c;fill-opacity:1;stroke:none;stroke-width:6;stroke-linecap:round;stroke-linejoin:round;stroke-miterlimit:4;stroke-dasharray:none" />
      <ellipse
         transform="rotate(-19.618179)"
         ry="8.450819"
         rx="6.0084314"
         cy="429.04935"
         cx="-29.320257"
         id="path1088"
         style="fill:#643c2c;fill-opacity:1;stroke:none;stroke-width:6;stroke-linecap:round;stroke-linejoin:round;stroke-miterlimit:4;stroke-dasharray:none" />
      <path
         transform="translate(14.719958,-15.423093)"
         sodipodi:nodetypes="cccccccccc"
         inkscape:connector-curvature="0"
         inkscape:original-d="m 97.797328,424.38575 c 2.473002,8.74684 20.715722,15.17488 19.290202,22.33466 m 58.74538,-49.79425 c 4.87187,3.05137 8.4123,18.02763 6.74949,23.57163 m -54.50562,-28.01194 c 12.22469,-0.33876 8.77145,13.91306 20.75321,14.03384 m -17.49083,-33.89492 c 0.35714,-9.0065 0.79319,-16.79214 12.53736,-19.35235 m 4.20453,80.57502 c 2.08906,7.61998 16.79191,10.06871 20.89888,8.3143"
         inkscape:path-effect="#path-effect1101"
         d="m 97.797328,424.38575 c 0.176643,0.62477 1.710401,3.08008 2.035045,3.6823 1.276657,1.84237 -2.393967,0.46335 -2.393967,0.46335 -1.856381,1.46059 -0.01284,3.91437 0.868161,4.79259 -0.672594,2.60349 1.735463,1.67529 2.494863,2.20814 1.03428,0.92267 0.8742,1.29786 1.55033,1.67999 0.48442,0.95734 0.41973,1.72865 1.36276,2.14743 -0.20541,1.30496 3.83294,3.20709 5.09093,3.61357 1.5372,2.28404 -1.77668,0.92185 -1.62635,0.96643 -0.27024,1.36256 3.63466,0.57454 5.2789,0.62741 0.5035,-0.0337 0.5847,0.33061 1.08819,0.36093 0.0691,0.33251 1.52353,-0.0518 2.04602,0.0169 0.54671,-0.0894 0.24124,0.088 0.41464,0.14029 0.1461,0.11636 0.0282,1.80414 0.22315,1.99646 0.27901,0.27526 -0.14084,1.30741 -0.24943,1.85282 m 59.85234,-52.00818 c 0.34799,0.21795 -0.42519,0.55411 -0.0922,0.88596 -0.66372,0.50648 0.40111,0.52028 0.83986,1.14336 -0.0948,0.097 0.8788,1.15983 1.27162,1.85642 0.36039,0.45096 0.6408,1.08893 0.91401,1.64554 0.34237,0.59272 2.21596,1.19604 2.46612,1.77521 1.87014,0.50568 0.21059,-0.0425 0.36351,0.38594 0.20503,0.071 0.82408,1.85417 1.05001,2.88344 0.36564,0.6313 0.12764,1.32774 0.22783,2.07876 -0.0607,0.60879 -0.30885,1.73604 -0.25442,2.5007 -0.44318,0.83241 0.0878,1.27084 0.12887,1.8746 0.0418,0.67207 0.092,1.07493 0.11987,1.68019 0.0391,0.46063 -0.59254,-0.10665 -0.60038,0.52252 -0.64844,-0.7099 0.86175,2.92609 0.96372,3.94328 0.0562,0.56023 -0.37543,1.72405 -0.45301,1.98269 m -54.70154,-29.59892 c 0.87319,-0.0242 2.63759,1.14665 3.36214,1.26087 1.25862,1.16592 0.592,0.13265 0.85677,0.19542 0.60506,0.16961 0.8063,-1.10177 1.28646,-0.89164 0.61191,-1.01825 0.13033,1.42159 0.78514,2.06457 -0.97574,1.02591 0.29834,0.50229 0.79014,1.14443 -0.24531,0.0331 0.48201,1.01203 1.02428,1.77227 -0.10116,0.23608 1.83351,1.22614 2.36471,1.89806 1.14665,0.24399 0.94551,-0.004 1.2161,0.33142 0.83262,-0.15775 -0.88628,1.91876 -0.46051,2.44986 -1.23079,1.47195 1.1483,1.01757 1.86293,1.49349 0.5343,0.18684 1.4404,0.26781 2.01787,0.54097 0.89056,-0.13764 2.67185,0.41949 3.16531,0.64178 1.91049,0.0479 -0.52065,1.30365 -0.37726,1.39844 0.69438,0.45897 2.10545,0.0836 3.37988,0.0965 m -18.01158,-34.25747 c 0.0255,-0.64332 2.08925,1.04443 2.11966,0.41503 2.10316,0.97237 2.08245,-4.82037 2.13695,-6.1934 1.9867,-2.0874 0.98726,2.71225 0.98726,2.71225 1.04467,1.26609 0.49172,-3.77709 0.46673,-5.20827 0.47478,-1.13962 0.0345,-0.41994 0.0297,-0.68667 0.0347,-0.42762 -0.12789,-1.68705 -0.12563,-2.20947 -0.10869,-0.86986 0.007,-0.55887 0.0157,-0.81807 0.0153,-0.43256 0.0253,-0.43822 0.067,-0.81673 0.0394,-0.1208 0.41961,-0.7077 0.53848,-1.15849 0.39919,-0.18219 1.76099,-1.16699 1.93967,-1.57602 1.60718,-0.53914 -0.78182,-0.27295 -0.69551,-0.48551 -0.74944,-0.36886 0.35026,1.0695 0.84512,0.61012 0.3231,1.63557 1.3876,-1.89131 2.40409,-2.87886 0.55846,-0.54257 2.85935,0.44634 3.53604,0.29883 m 2.47666,79.21793 c 0.14922,0.54428 1.284,0.041 1.55347,0.53287 1.22038,-0.47509 -0.94622,1.54544 -0.53311,2.04146 -1.10235,1.08354 1.23044,1.22895 1.90717,1.74632 0.56678,0.40062 0.0121,0.45081 0.5107,0.75095 -0.13189,0.25808 1.49333,0.72545 2.39172,1.10562 0.51605,0.11029 0.19207,-1.32197 0.88057,-1.08923 -0.0448,-1.48314 4.04849,1.60417 5.24331,1.9966 1.79616,0.83981 0.66968,0.58904 0.67328,0.59022 1.02167,0.70458 -1.66395,-1.67293 -1.33291,-1.57497 -0.92506,-1.47163 5.205,2.58966 6.64295,3.03917 2.21841,1.63225 2.49326,0.83844 2.49326,0.83844 4.35697,1.42105 0.95433,1.115 0.90139,0.44114 0.6275,1.66639 1.02725,-2.61871 0.97196,-3.12399 -0.0124,-0.11363 -1.53351,0.85066 -1.50389,0.83801"
         style="fill:#b17a42;fill-opacity:1;stroke:#b17d42;stroke-width:6;stroke-linecap:round;stroke-linejoin:round;stroke-miterlimit:4;stroke-dasharray:none;stroke-opacity:1"
         id="path1098" />
    </g>
    <g
       style="display:inline"
       inkscape:label="wing f"
       id="layer9"
       inkscape:groupmode="layer">
      <path
         sodipodi:nodetypes="ccccsc"
         inkscape:connector-curvature="0"
         id="path1038"
         d="m 335.68957,346.41335 c 22.58859,2.94459 48.18385,79.08886 53.39285,121.98134 2.57952,-43.17126 -0.21262,-117.18833 -6.61555,-130.87156 6.79238,-4.94184 22.3829,29.21624 22.3829,29.21624 4.96874,47.80583 6.76397,172.44197 -14.51874,173.85071 -24.03325,1.5908 -56.0628,-108.19051 -63.08293,-141.9261"
         style="fill:#3250b0;fill-opacity:1;stroke:none;stroke-width:6;stroke-linecap:round;stroke-linejoin:round;stroke-miterlimit:4;stroke-dasharray:none" />
      <path
         transform="translate(0,-3.3715805)"
         inkscape:original-d="m 334.28277,349.90481 c 20.35551,-4.05295 49.59065,78.96898 54.79965,121.86146 2.57952,-43.17126 -0.21262,-117.18833 -6.61555,-130.87156 6.79238,-4.94184 22.3829,29.21624 22.3829,29.21624 4.96874,47.80583 6.76397,172.44197 -14.51874,173.85071 -24.03325,1.5908 -56.0628,-108.19051 -63.08293,-141.9261"
         inkscape:path-effect="#path-effect1147"
         style="fill:#1d2848;fill-opacity:1;fill-rule:nonzero;stroke:none;stroke-width:6;stroke-linecap:round;stroke-linejoin:round;stroke-miterlimit:4;stroke-dasharray:none"
         d="m 350.70972,356.28877 c -2.37755,-2.95338 -5.40218,-5.21343 -8.57132,-6.43887 -2.30847,-0.94151 -4.40871,-0.95254 -5.81173,-0.68232 -1.38675,0.26709 -2.0439,0.73723 -2.0439,0.73723 0,0 0.81352,0.054 1.95072,0.50924 1.25173,0.50112 2.45156,1.32322 3.92763,2.6958 2.24912,2.14083 3.48109,4.07968 5.90846,6.98275 17.25464,21.04823 35.99286,78.7534 40.03472,112.03534 l 3.99587,32.90317 1.97691,-33.08591 c 2.3161,-38.76264 0.41238,-102.63436 -4.90732,-125.95186 0.0919,0.1018 0.18485,0.20635 0.27871,0.31364 0.64194,0.7338 1.30313,1.56639 1.98365,2.48889 0.61136,0.82876 1.22839,1.71695 1.8465,2.64979 1.11391,1.6811 2.21606,3.4841 3.27191,5.30427 0,0 2.86177,4.3492 7.36576,14.16033 4.42183,43.20795 6.03872,146.91889 -8.3292,167.40967 -1.36882,1.95213 -2.56342,2.58932 -3.4542,2.64828 -2.55013,0.1688 -5.69094,-1.60983 -9.56486,-6.01086 -15.91675,-18.08244 -33.45104,-69.67305 -43.47976,-105.85559 -1.86503,-6.73235 -4.51047,-13.77545 -6.42016,-18.65528 -1.97238,-5.04004 -3.42001,-8.41092 -3.42001,-8.41092 0,0 -0.023,3.66865 0.50202,9.10666 0.53482,5.53967 1.60314,12.5196 3.55614,19.56214 12.58485,45.4048 36.99685,117.72193 59.22291,116.25075 3.36576,-0.22279 5.96614,-2.33189 7.97056,-5.19049 15.93667,-22.72804 13.81792,-128.82228 9.33397,-171.96381 a 318.4855,318.4855 0 0 0 -0.0511,-0.48832 274.13157,274.13157 0 0 0 -0.20362,-0.44719 c -6.06743,-13.29344 -9.34086,-17.65145 -9.34086,-17.65145 -1.27438,-2.08564 -2.62418,-4.14519 -3.97759,-5.97983 -0.75435,-1.02258 -1.52583,-1.99705 -2.29614,-2.87759 -0.8559,-0.97838 -1.74111,-1.87697 -2.64262,-2.62705 -2.3311,-1.93952 -5.66747,-3.40856 -8.61983,-1.26055 a 6.3462621,6.3462621 0 0 0 -1.85761,2.12961 10.535276,10.535276 0 0 1 0.90536,1.56777 c 4.86271,10.39175 7.69862,60.67239 7.22648,102.29477 -7.815,-32.40756 -22.24434,-71.06726 -36.26641,-88.17221 z"
         id="path1145"
         inkscape:connector-curvature="0"
         sodipodi:nodetypes="ccccsc" />
      <path
         sodipodi:nodetypes="ccc"
         inkscape:connector-curvature="0"
         id="path1074"
         d="m 395.65364,747.79472 c 10.49834,-54.71421 39.25068,-305.81377 -13.58923,-426.15726 42.61594,25.09881 94.22843,115.32314 105.0401,399.19228"
         style="fill:#292f75;fill-opacity:1;stroke:none;stroke-width:6;stroke-linecap:round;stroke-linejoin:round;stroke-miterlimit:4;stroke-dasharray:none" />
      <path
         sodipodi:nodetypes="ccccc"
         inkscape:connector-curvature="0"
         id="path1036"
         d="m 383.45013,321.45932 c -4.40239,-3.88581 -7.43046,-8.56788 -8.65966,-10.79416 -1.68503,-3.05187 -10.92419,-6.95885 -17.36675,-3.40457 1.27789,4.50297 3.05989,11.25703 10.82453,13.16329 0.93135,8.01536 14.75553,16.67328 18.9887,18.99814"
         style="fill:#3250b0;fill-opacity:1;stroke:#1d2848;stroke-width:6;stroke-linecap:round;stroke-linejoin:round;stroke-miterlimit:4;stroke-dasharray:none" />
      <path
         sodipodi:nodetypes="cscc"
         inkscape:connector-curvature="0"
         d="m 476.76877,714.37805 c 3.60576,-133.40049 -32.99731,-336.73445 -88.46918,-379.52016 -3.36318,-2.59403 -6.95757,-10.63076 -4.81065,-13.57708 64.2081,24.67634 106.40385,232.19926 110.06756,393.24824"
         style="display:inline;opacity:1;fill:#3250b0;fill-opacity:1;stroke:#1d2848;stroke-width:6;stroke-linecap:round;stroke-linejoin:round;stroke-miterlimit:4;stroke-dasharray:none"
         id="path1030" />
      <path
         id="path1034"
         style="display:inline;opacity:1;fill:#3250b0;fill-opacity:1;stroke:#1d2848;stroke-width:6;stroke-linecap:round;stroke-linejoin:round;stroke-miterlimit:4;stroke-dasharray:none"
         d="m 389.32395,748.71278 c 20.76309,-141.74651 21.42555,-319.70292 -13.77259,-415.28085 -2.82242,-7.66407 5.9458,-12.97654 7.93758,-12.15112 36.03721,79.17606 45.26237,256.76192 17.99145,426.22623"
         inkscape:connector-curvature="0"
         sodipodi:nodetypes="cscc" />
    </g>
    <g
       style="opacity:1"
       inkscape:label="arm l"
       id="layer8"
       inkscape:groupmode="layer">
      <path
         inkscape:transform-center-y="-62.955548"
         inkscape:transform-center-x="60.945526"
         sodipodi:nodetypes="ccsssc"
         inkscape:connector-curvature="0"
         id="path1072"
         d="m 320.68669,367.07582 c -16.86852,5.62511 -60.36747,86.93748 -61.72819,105.30079 -19.45573,10.63064 -50.75785,45.1677 -63.32906,53.01956 -12.5712,7.85187 13.15283,16.59612 30.53511,15.76082 17.38228,-0.83529 68.64422,-22.16965 82.04194,-36.66519 13.39771,-14.49554 39.1539,-75.18338 38.82024,-100.6846"
         style="fill:#3250b0;fill-opacity:1;stroke:none;stroke-width:6;stroke-linecap:round;stroke-linejoin:round;stroke-miterlimit:4;stroke-dasharray:none" />
      <path
         inkscape:transform-center-y="-64.433663"
         inkscape:transform-center-x="61.643659"
         transform="translate(0,-3.3715805)"
         inkscape:original-d="m 320.68669,370.4474 c -16.25402,3.87 -60.36747,86.93748 -61.72819,105.30079 -19.45573,10.63064 -50.75785,45.1677 -63.32906,53.01956 -12.5712,7.85187 13.15283,16.59612 30.53511,15.76082 17.38228,-0.83529 68.64422,-22.16965 82.04194,-36.66519 13.39771,-14.49554 39.1539,-75.18338 38.82024,-100.6846"
         inkscape:path-effect="#path-effect1143"
         style="fill:#1d2848;fill-opacity:1;fill-rule:nonzero;stroke:none;stroke-width:6;stroke-linecap:round;stroke-linejoin:round;stroke-miterlimit:4;stroke-dasharray:none"
         d="m 310.85592,382.56622 c 1.85864,-2.21464 4.19657,-5.64655 5.54811,-7.47987 1.36409,-1.75198 1.8087,-2.48222 2.8646,-3.50105 0.80043,-0.77234 1.41806,-1.1379 1.41806,-1.1379 0,0 -0.69913,-0.13227 -1.93083,0.0631 -1.32148,0.20962 -2.89468,0.755 -4.7277,1.79056 -2.71655,1.47759 -5.48388,3.65991 -7.77746,6.41912 -19.17772,22.96332 -47.23988,77.50706 -50.08448,95.16132 -19.81571,11.58025 -50.19368,44.88894 -62.12603,52.34178 -3.05613,1.90883 -5.07503,4.40874 -4.71212,7.61618 1.01619,8.98106 22.64551,14.3745 36.98048,13.68564 18.1937,-0.87428 70.10591,-22.48357 84.10105,-37.62548 11.65124,-12.60596 31.06364,-56.18455 37.47771,-85.64422 0.93325,-4.22936 0.89828,-8.41378 0.42073,-11.76679 -0.46375,-3.2561 -1.28131,-5.30984 -1.28131,-5.30984 0,0 -0.68715,2.10034 -1.70345,5.04108 -0.92551,2.67801 -2.50091,7.04374 -3.29862,10.75911 -6.27492,28.82054 -25.63034,71.60577 -36.02128,82.84816 -12.8003,13.84917 -63.41197,34.9086 -79.98283,35.7049 -13.4588,0.64676 -30.3494,-4.99883 -30.73052,-8.36714 0,0 0.13694,-0.73358 1.92866,-1.85268 12.93488,-8.079 44.02533,-42.46618 63.17829,-52.93138 a 46.797355,46.797355 0 0 1 1.54041,-0.80491 12.188996,12.188996 0 0 1 0.0129,-1.60604 c 1.03475,-13.9643 29.38433,-70.02896 48.90562,-93.40366 z"
         id="path1141"
         inkscape:connector-curvature="0"
         sodipodi:nodetypes="ccsssc" />
    </g>
    <g
       style="display:inline"
       inkscape:label="hand r f"
       id="layer11"
       inkscape:groupmode="layer">
      <path
         sodipodi:nodetypes="csssc"
         inkscape:connector-curvature="0"
         id="path1069"
         d="m 114.04833,392.26418 c 6.56569,-4.20523 10.13639,-17.07915 0.72294,-19.26761 -0.64131,-0.14909 -6.89804,-0.16218 -12.66399,-0.87421 -4.982609,-0.6153 -9.566099,-1.96377 -10.234108,-1.83951 -6.495105,1.20822 -12.569378,13.01893 -6.685938,19.31235"
         style="fill:#3250b0;fill-opacity:1;stroke:#1d2848;stroke-width:6;stroke-linecap:round;stroke-linejoin:round;stroke-miterlimit:4;stroke-dasharray:none" />
      <path
         sodipodi:nodetypes="cscccssc"
         inkscape:connector-curvature="0"
         d="m 84.898926,409.81851 c 6.50432,2.60902 30.507724,3.37767 35.477824,1.99302 6.43801,-1.7936 6.86546,-14.35222 -0.42421,-17.8782 -3.51447,-1.69994 -21.079259,-0.10515 -34.008424,-4.03122 -11.670598,1.9472 -12.236138,14.48125 -1.807715,19.71467 -7.852824,7.11409 -8.775118,14.83477 -3.373093,18.12933 7.647893,4.66425 27.495162,7.4393 35.758052,3.81182 8.59018,-3.77116 5.4764,-15.78692 0.77323,-18.87574"
         style="fill:#3250b0;fill-opacity:1;stroke:#1d2848;stroke-width:6;stroke-linecap:round;stroke-linejoin:round;stroke-miterlimit:4;stroke-dasharray:none"
         id="path1067" />
      <path
         sodipodi:nodetypes="ccssc"
         inkscape:connector-curvature="0"
         id="path1059"
         d="m 106.25294,380.02989 c 4.63986,-3.58184 19.86207,0.78736 22.69278,1.80165 -4.63606,5.53446 -20.4191,5.7139 -22.67252,3.69742 -1.21459,-1.08688 -2.32149,-3.7226 -0.0203,-5.49907 z"
         style="fill:#3a3c3f;fill-opacity:1;stroke:#292929;stroke-width:4;stroke-linecap:round;stroke-linejoin:round;stroke-miterlimit:4;stroke-dasharray:none" />
      <path
         sodipodi:nodetypes="scss"
         inkscape:connector-curvature="0"
         id="path1061"
         d="m 110.47827,399.21247 c 3.71845,-2.46139 17.76577,0.86196 21.62315,2.30074 -3.43699,5.31016 -18.45395,5.95914 -21.25886,4.237 -1.86455,-1.14478 -2.80128,-4.92459 -0.36429,-6.53774 z"
         style="fill:#3a3c3f;fill-opacity:1;stroke:#292929;stroke-width:4;stroke-linecap:round;stroke-linejoin:round;stroke-miterlimit:4;stroke-dasharray:none" />
      <path
         inkscape:connector-curvature="0"
         id="path1063"
         d="m 111.57656,418.59116 c 3.52622,-0.82309 13.57084,0.21268 19.41414,2.10006 -3.87971,4.74715 -17.96336,7.45064 -21.30721,5.1531 -3.34385,-2.29755 -1.61958,-7.20297 1.89307,-7.25316 z"
         style="fill:#3a3c3f;fill-opacity:1;stroke:#292929;stroke-width:4;stroke-linecap:round;stroke-linejoin:round;stroke-miterlimit:4;stroke-dasharray:none" />
    </g>
    <g
       style="display:inline;opacity:1"
       inkscape:label="head f"
       id="layer3"
       inkscape:groupmode="layer">
      <path
         sodipodi:nodetypes="csscsscscssc"
         inkscape:connector-curvature="0"
         d="m 258.817,235.43654 c -0.31973,9.25736 -7.05343,23.09037 -13.22084,31.30166 -10.04269,13.37083 -29.70917,30.99974 -38.29112,45.28384 -3.50907,5.84062 -4.09438,14.37825 -5.94737,19.21146 -3.1574,8.23557 -9.88984,14.44723 -17.97357,18.78852 -12.56504,6.74794 -27.39291,-2.3423 -39.50727,-1.2617 -10.06072,0.89741 -25.84291,9.64187 -34.61317,3.525 -8.60063,-5.99854 -10.023445,-29.49588 -2.47662,-42.07533 2.29222,-3.82079 5.30789,-6.70975 8.88042,-8.80672 9.59556,-11.0258 10.13505,-23.78252 8.39245,-36.60041 -1.9107,-14.05443 -1.66167,-81.1212 21.14837,-109.14144 19.28036,-23.68433 41.56724,-35.01121 94.33911,-28.43302"
         style="fill:#3250b0;stroke:none;stroke-width:6;stroke-linecap:round;stroke-linejoin:round;stroke-miterlimit:4;stroke-dasharray:none"
         id="path1124" />
      <path
         sodipodi:nodetypes="ccc"
         inkscape:connector-curvature="0"
         id="path1114"
         d="M 146.17526,159.1875 C 152.19079,127.73488 190.05883,13.361963 221.64324,2.9997762 200.08113,41.772881 192.36551,126.31512 195.49856,141.12454"
         style="fill:#3a3c3f;fill-opacity:1;stroke:#292929;stroke-width:6;stroke-linecap:round;stroke-linejoin:round;stroke-miterlimit:4;stroke-dasharray:none;stroke-opacity:1" />
      <path
         inkscape:connector-curvature="0"
         id="path1116"
         d="m 159.07735,112.3182 c 8.11355,-3.71107 33.9733,-1.97708 37.33322,2.66298 -0.56268,7.95703 -1.66925,24.43273 -1.66925,24.43273 l -47.99379,19.09633 c 1.37865,-12.00393 7.75547,-36.89719 12.32982,-46.19204 z"
         style="fill:#3250b0;fill-opacity:1;stroke:#1d2848;stroke-width:6;stroke-linecap:round;stroke-linejoin:round;stroke-miterlimit:4;stroke-dasharray:none;stroke-opacity:1" />
      <path
         inkscape:connector-curvature="0"
         id="path1051"
         d="m 232.3897,121.37842 c -38.59105,0.0211 -69.98479,14.50968 -86.77472,32.85124 -7.4083,13.34797 -6.36553,38.13534 10.5206,41.37586 31.15695,5.97915 34.05994,-44.78886 65.62912,-49.1314"
         style="fill:#292f75;fill-opacity:1;stroke:none;stroke-width:6;stroke-linecap:round;stroke-linejoin:round;stroke-miterlimit:4;stroke-dasharray:none" />
      <ellipse
         transform="rotate(-16.560051)"
         ry="26.983109"
         rx="28.718336"
         cy="280.92969"
         cx="123.11478"
         id="path943"
         style="fill:#ffffff;stroke:#000000;stroke-width:6;stroke-linecap:round;stroke-linejoin:round;stroke-miterlimit:4;stroke-dasharray:none" />
      <ellipse
         ry="10.594586"
         rx="10.758449"
         cy="244.9912"
         cx="191.55254"
         id="path937"
         style="fill:#f01d0a;stroke:none;stroke-width:3;stroke-linecap:round;stroke-linejoin:round" />
      <ellipse
         transform="rotate(-25.387876)"
         ry="7.7986794"
         rx="5.7518296"
         cy="290.76779"
         cx="156.52579"
         id="path945"
         style="fill:#1d2848;stroke:none;stroke-width:6;stroke-linecap:round;stroke-linejoin:round;stroke-miterlimit:4;stroke-dasharray:none" />
      <path
         sodipodi:nodetypes="sssss"
         inkscape:connector-curvature="0"
         id="path965"
         d="m 174.74581,314.28248 c -6.69394,4.21481 -8.88736,9.31794 -11.63099,11.7337 -2.43861,2.1472 -6.90968,-1.41611 -3.24735,-6.34152 3.66232,-4.92541 8.62188,-8.61696 12.43619,-9.3771 3.81431,-0.76015 4.85778,2.46392 2.44215,3.98492 z"
         style="fill:#1d2848;stroke:none;stroke-width:6;stroke-linecap:round;stroke-linejoin:round;stroke-miterlimit:4;stroke-dasharray:none" />
      <path
         sodipodi:nodetypes="sssss"
         inkscape:connector-curvature="0"
         id="path967"
         d="m 122.30422,310.17316 c 4.03532,2.75653 6.94131,8.15151 7.28439,13.57744 0.22663,3.58429 -5.41218,4.23154 -6.0609,0.1854 -0.64871,-4.04613 -2.23921,-9.36321 -4.7055,-11.64562 -2.46629,-2.28241 0.83205,-3.92741 3.48201,-2.11722 z"
         style="fill:#1d2848;stroke:none;stroke-width:6;stroke-linecap:round;stroke-linejoin:round;stroke-miterlimit:4;stroke-dasharray:none" />
      <path
         transform="translate(0,-3.3715805)"
         inkscape:original-d="m 140.77849,301.45686 c -6.30672,-3.4471 -25.32263,-2.32494 -33.99145,12.12471 -7.546825,12.57945 -6.12401,36.07679 2.47662,42.07533 8.77026,6.11687 24.55245,-2.62759 34.61317,-3.525 12.11436,-1.0806 26.94223,8.00964 39.50727,1.2617 8.08373,-4.34129 14.81617,-10.55295 17.97357,-18.78852 1.85299,-4.83321 2.4383,-13.37084 5.94737,-19.21146 8.58195,-14.2841 28.24843,-31.91301 38.29112,-45.28384 6.16741,-8.21129 12.90111,-22.0443 13.22084,-31.30166"
         inkscape:path-effect="#path-effect1133"
         sodipodi:nodetypes="csssssssc"
         inkscape:connector-curvature="0"
         id="path969"
         d="m 121.55286,304.95993 c 3.7323,-1.49454 7.15558,-2.56465 10.65159,-3.22142 2.74408,-0.45579 4.3205,-0.6847 6.11818,-0.61091 1.5234,0.0625 2.45586,0.32926 2.45586,0.32926 0,0 -0.64013,-0.71986 -2.09846,-1.53922 -1.54203,-0.86638 -3.68235,-1.63126 -6.51644,-2.00494 -3.85443,-0.56127 -8.41903,-0.29796 -12.84376,1.47825 -5.72514,2.29564 -11.301,6.30597 -15.10535,12.64726 -8.071876,13.45464 -6.891978,38.94788 3.333,46.07932 10.17317,7.09534 27.34869,-2.17265 36.59589,-2.99749 11.1588,-0.99537 27.05104,8.22517 40.66012,0.91654 8.51949,-4.57531 15.87077,-11.26854 19.35537,-20.35756 2.02656,-5.28594 2.50309,-13.3898 5.71775,-18.74039 8.34154,-13.88395 27.89109,-31.41068 38.1183,-45.02718 2.50945,-3.34109 5.08722,-7.54194 7.30898,-11.95639 2.55289,-4.96102 3.81986,-10.01955 4.05312,-14.37284 0.22224,-4.14781 -0.54001,-6.7741 -0.54001,-6.7741 0,0 -0.75754,2.62336 -2.36482,6.07081 -1.61541,3.4649 -4.24713,7.78081 -6.50778,12.37874 -2.09022,4.15311 -4.46973,8.0185 -6.74698,11.05044 -9.85818,13.12516 -29.64159,30.85625 -38.46395,45.5405 -3.80348,6.33065 -4.49757,15.30205 -6.17699,19.68253 -2.8302,7.38212 -8.9438,13.11221 -16.59177,17.21948 -11.463,6.1561 -25.23141,-2.77743 -38.35442,-1.60686 -10.89676,0.97199 -25.30193,9.16382 -32.63045,4.0525 -6.88604,-4.80269 -8.61284,-26.41569 -1.62025,-38.07133 3.02417,-5.04083 7.48694,-8.27787 12.19327,-10.165 z"
         style="fill:#1d2848;fill-rule:nonzero;stroke:none;stroke-width:6;stroke-linecap:round;stroke-linejoin:round;stroke-miterlimit:4;stroke-dasharray:none" />
      <path
         inkscape:connector-curvature="0"
         id="path971"
         d="m 115.92713,301.42534 c 9.33589,-11.04787 9.87538,-23.80459 8.13278,-36.62248 -1.9107,-14.05443 -1.66167,-81.1212 21.14837,-109.14144 19.28036,-23.68433 58.10428,-39.35252 110.87615,-32.77433"
         style="fill:none;stroke:#1d2848;stroke-width:6;stroke-linecap:round;stroke-linejoin:round;stroke-miterlimit:4;stroke-dasharray:none" />
      <path
         sodipodi:nodetypes="ccc"
         inkscape:connector-curvature="0"
         id="path1040"
         d="M 217.22516,123.37306 C 237.68021,79.876984 284.06681,12.670944 315.94679,3.008044 300.21676,23.807669 271.72226,89.04916 258.16268,129.11289"
         style="fill:#3a3c3f;fill-opacity:1;stroke:#292929;stroke-width:6;stroke-linecap:round;stroke-linejoin:round;stroke-miterlimit:4;stroke-dasharray:none" />
      <path
         inkscape:connector-curvature="0"
         id="path1042"
         d="m 206.65442,152.24086 c 0.98404,-6.55927 8.7877,-27.07547 11.21021,-30.33225 9.143,-1.36633 37.29323,1.80083 41.97294,4.35571 -2.2069,4.06477 -9.75919,25.14304 -8.70389,33.10427"
         style="fill:#3250b0;fill-opacity:1;stroke:none;stroke-width:6;stroke-linecap:round;stroke-linejoin:round;stroke-miterlimit:4;stroke-dasharray:none" />
      <ellipse
         transform="rotate(-55.461122)"
         ry="27.481905"
         rx="28.679554"
         cy="241.21695"
         cx="-126.16098"
         id="path941"
         style="fill:#ffffff;stroke:#000000;stroke-width:6;stroke-linecap:round;stroke-linejoin:round;stroke-miterlimit:4;stroke-dasharray:none" />
      <ellipse
         ry="11.083914"
         rx="11.140278"
         cy="249.76295"
         cx="132.61964"
         id="path939"
         style="fill:#f01d0a;stroke:none;stroke-width:3;stroke-linecap:round;stroke-linejoin:round" />
      <path
         transform="translate(0,-3.3715805)"
         sodipodi:nodetypes="cccc"
         inkscape:original-d="m 206.20878,158.82963 c 0.98404,-6.55927 9.23334,-30.29266 11.65585,-33.54944 9.143,-1.36633 37.29323,1.80083 41.97294,4.35571 -2.2069,4.06477 -9.75919,25.14304 -8.70389,33.10427"
         inkscape:path-effect="#path-effect1139"
         style="fill:#1d2848;fill-opacity:1;fill-rule:nonzero;stroke:none;stroke-width:6;stroke-linecap:round;stroke-linejoin:round;stroke-miterlimit:4;stroke-dasharray:none"
         d="m 205.31105,150.14749 c -0.58772,1.93882 -0.46396,4.13563 -0.0821,5.86725 0.37725,1.71066 0.9798,2.81489 0.9798,2.81489 0,0 0.88476,-0.89451 1.94028,-2.13413 1.04096,-1.22254 2.3424,-2.89976 2.91093,-4.83052 2.53583,-8.48816 6.75103,-20.01761 8.62816,-23.77472 8.56846,-0.72514 28.39495,1.43204 36.05221,3.30601 -2.06532,4.99688 -5.00398,13.6534 -6.58659,21.02598 -0.5717,2.46514 -0.30165,5.12742 0.38021,7.20566 0.66261,2.01958 1.5997,3.11226 1.5997,3.11226 0,0 0.55694,-1.32544 1.38694,-2.96113 0.78577,-1.54854 2.04656,-3.80408 2.49951,-6.09751 1.94074,-9.04091 6.1464,-20.20596 7.45392,-22.6142 a 6.904851,6.904851 0 0 1 1.14357,-1.54538 5.435056,5.435056 0 0 0 -2.34249,-2.51919 c -5.56121,-3.03613 -34.32078,-6.11425 -43.8539,-4.68962 a 19.10429,19.10429 0 0 0 -0.93908,0.16439 4.7570928,4.7570928 0 0 0 -1.02462,1.01217 c -2.21194,2.9737 -7.27052,17.03115 -10.14648,26.65779 z"
         id="path1137"
         inkscape:connector-curvature="0" />
    </g>
  </g>
</svg>
